<?xml version="1.0" standalone="no"?>
<svg viewBox="0 0 200 200" xmlns="http://www.w3.org/2000/svg">
  <path fill="#8A3FFC" d="M40.2,-65.7C51.6,-55.2,60.1,-43.2,66.6,-30.1C73.1,-16.9,77.7,-2.5,76.4,11.4C75,25.3,67.6,38.8,57.9,50.6C48.3,62.4,36.3,72.6,22.5,76.4C8.8,80.3,-6.7,77.9,-20.6,72.7C-34.4,67.4,-46.7,59.2,-57.7,48.7C-68.7,38.3,-78.4,25.5,-81.5,11.1C-84.5,-3.3,-80.9,-19.3,-73.1,-32.1C-65.2,-44.8,-53.1,-54.2,-40.2,-64.1C-27.3,-73.9,-13.6,-84.1,0.4,-84.7C14.4,-85.3,28.7,-76.2,40.2,-65.7Z" transform="translate(100 100)" />
</svg>
