<?xml version="1.0" standalone="no"?>
<svg viewBox="0 0 200 200" xmlns="http://www.w3.org/2000/svg">
  <path fill="#8A3FFC" d="M44.5,-79.3C56.2,-70.4,62.9,-55.3,70.9,-41.1C78.8,-26.8,88,-13.4,88.3,0.2C88.6,13.8,80,27.5,70.6,39.3C61.3,51.1,51,60.9,39.1,70.2C27.2,79.6,13.6,88.5,-0.6,89.5C-14.8,90.6,-29.6,83.7,-42.7,75.1C-55.8,66.4,-67.2,55.9,-74.6,43.1C-81.9,30.3,-85.3,15.1,-83.2,1.2C-81.1,-12.7,-73.6,-25.4,-65.5,-37C-57.5,-48.6,-48.8,-59.1,-37.8,-68.3C-26.8,-77.5,-13.4,-85.3,1.5,-88C16.5,-90.6,32.9,-88.1,44.5,-79.3Z" transform="translate(100 100)" />
</svg>
