<?xml version="1.0" standalone="no"?>
<svg viewBox="0 0 200 200" xmlns="http://www.w3.org/2000/svg">
  <path fill="#8A3FFC" d="M30.1,-47.7C37.9,-41.7,42.6,-31.7,49.5,-21.3C56.3,-10.9,65.3,-0.1,67.3,12.1C69.2,24.2,64.2,37.7,56.5,51.9C48.8,66.1,38.5,81,26,81.4C13.5,81.9,-1.2,67.9,-18.1,62.6C-35,57.2,-54.2,60.4,-67.7,53.7C-81.3,47,-89.2,30.5,-86.4,15.6C-83.5,0.8,-69.8,-12.5,-58.3,-22C-46.7,-31.5,-37.2,-37.3,-27.8,-42.6C-18.5,-47.9,-9.2,-52.8,0.9,-54.2C11.1,-55.7,22.2,-53.7,30.1,-47.7Z" transform="translate(100 100)" />
</svg>
