<?xml version="1.0" standalone="no"?>
<svg viewBox="0 0 200 200" xmlns="http://www.w3.org/2000/svg">
  <path fill="#8A3FFC" d="M37.6,-53.8C49.9,-42.9,61.9,-33.4,66.5,-21.1C71.1,-8.9,68.4,6.2,63.5,20.4C58.5,34.5,51.3,47.6,40.3,53.6C29.4,59.6,14.7,58.5,-0.7,59.5C-16.1,60.4,-32.1,63.4,-43.2,57.4C-54.3,51.4,-60.4,36.5,-65.5,21.2C-70.7,5.8,-74.8,-9.9,-73.2,-26.5C-71.6,-43.1,-64.1,-60.5,-50.9,-71.2C-37.7,-81.9,-18.9,-85.8,-3.1,-81.5C12.7,-77.3,25.4,-64.8,37.6,-53.8Z" transform="translate(100 100)" />
</svg>
